<svg xmlns="http://www.w3.org/2000/svg" xmlns:xlink="http://www.w3.org/1999/xlink" width="100" zoomAndPan="magnify" viewBox="0 0 75 74.999997" height="100" preserveAspectRatio="xMidYMid meet" version="1.0"><defs><clipPath id="ef681fd9ab"><path d="M 6.609375 24 L 36 24 L 36 72 L 6.609375 72 Z M 6.609375 24 " clip-rule="nonzero"/></clipPath><clipPath id="8d0fa62145"><path d="M 39.601562 24.621094 L 68.109375 24.621094 L 68.109375 71.449219 L 39.601562 71.449219 Z M 39.601562 24.621094 " clip-rule="nonzero"/></clipPath><clipPath id="a880d0395a"><path d="M 10 3.128906 L 65 3.128906 L 65 36 L 10 36 Z M 10 3.128906 " clip-rule="nonzero"/></clipPath><clipPath id="67c84f5d0f"><path d="M 47.859375 45 L 55 45 L 55 55.386719 L 47.859375 55.386719 Z M 47.859375 45 " clip-rule="nonzero"/></clipPath><clipPath id="2b7cd9e400"><path d="M 55.199219 45.167969 L 61.359375 45.167969 L 61.359375 55.386719 L 55.199219 55.386719 Z M 55.199219 45.167969 " clip-rule="nonzero"/></clipPath><clipPath id="c002e18908"><path d="M 48 40.386719 L 61 40.386719 L 61 48 L 48 48 Z M 48 40.386719 " clip-rule="nonzero"/></clipPath></defs><g clip-path="url(#ef681fd9ab)"><path fill="#ffffff" d="M 34.460938 40.117188 L 8.34375 24.847656 C 7.574219 24.398438 6.609375 24.953125 6.609375 25.84375 L 6.609375 55.832031 C 6.609375 56.25 6.835938 56.636719 7.203125 56.839844 L 33.320312 71.304688 C 34.089844 71.730469 35.03125 71.171875 35.03125 70.296875 L 35.03125 41.113281 C 35.03125 40.703125 34.8125 40.324219 34.460938 40.117188 " fill-opacity="1" fill-rule="nonzero"/></g><g clip-path="url(#8d0fa62145)"><path fill="#ffffff" d="M 66.675781 24.847656 L 40.558594 40.117188 C 40.207031 40.324219 39.988281 40.703125 39.988281 41.113281 L 39.988281 70.296875 C 39.988281 71.171875 40.933594 71.730469 41.699219 71.304688 L 67.816406 56.839844 C 68.183594 56.636719 68.410156 56.25 68.410156 55.832031 L 68.410156 25.84375 C 68.410156 24.953125 67.445312 24.398438 66.675781 24.847656 " fill-opacity="1" fill-rule="nonzero"/></g><g clip-path="url(#a880d0395a)"><path fill="#ffffff" d="M 63.835938 18.335938 L 37.214844 3.480469 C 36.855469 3.28125 36.417969 3.289062 36.066406 3.496094 L 11.054688 18.1875 C 10.296875 18.628906 10.292969 19.71875 11.042969 20.167969 L 36.0625 35.175781 C 36.417969 35.390625 36.859375 35.394531 37.21875 35.195312 L 63.835938 20.347656 C 64.625 19.90625 64.625 18.773438 63.835938 18.335938 " fill-opacity="1" fill-rule="nonzero"/></g><g clip-path="url(#67c84f5d0f)"><path fill="#ffffff" d="M 54.054688 48.617188 L 48.246094 45.21875 C 48.074219 45.117188 47.859375 45.242188 47.859375 45.441406 L 47.859375 52.113281 C 47.859375 52.207031 47.910156 52.292969 47.992188 52.335938 L 53.800781 55.554688 C 53.972656 55.648438 54.183594 55.527344 54.183594 55.332031 L 54.183594 48.839844 C 54.183594 48.746094 54.132812 48.664062 54.054688 48.617188 " fill-opacity="1" fill-rule="nonzero"/></g><g clip-path="url(#2b7cd9e400)"><path fill="#ffffff" d="M 61.222656 45.21875 L 55.414062 48.617188 C 55.335938 48.664062 55.285156 48.746094 55.285156 48.839844 L 55.285156 55.332031 C 55.285156 55.527344 55.496094 55.648438 55.667969 55.554688 L 61.476562 52.335938 C 61.558594 52.292969 61.609375 52.207031 61.609375 52.113281 L 61.609375 45.441406 C 61.609375 45.242188 61.394531 45.117188 61.222656 45.21875 " fill-opacity="1" fill-rule="nonzero"/></g><g clip-path="url(#c002e18908)"><path fill="#ffffff" d="M 60.59375 43.769531 L 54.667969 40.464844 C 54.589844 40.421875 54.492188 40.421875 54.414062 40.46875 L 48.847656 43.738281 C 48.679688 43.835938 48.679688 44.078125 48.847656 44.179688 L 54.414062 47.515625 C 54.492188 47.5625 54.589844 47.566406 54.667969 47.519531 L 60.59375 44.21875 C 60.765625 44.121094 60.765625 43.867188 60.59375 43.769531 " fill-opacity="1" fill-rule="nonzero"/></g></svg>